<?xml version="1.0" standalone="no"?>
<!DOCTYPE svg PUBLIC "-//W3C//DTD SVG 20010904//EN"
 "http://www.w3.org/TR/2001/REC-SVG-20010904/DTD/svg10.dtd">
<svg version="1.0" xmlns="http://www.w3.org/2000/svg"
 width="792.000000pt" height="792.000000pt" viewBox="0 0 792.000000 792.000000"
 preserveAspectRatio="xMidYMid meet">
<metadata>
Created by potrace 1.14, written by Peter Selinger 2001-2017
</metadata>
<g transform="translate(0.000000,792.000000) scale(0.100000,-0.100000)"
fill="#000000" stroke="none">
<path d="M3738 6924 c-2 -1 -26 -5 -53 -8 -122 -12 -173 -18 -215 -27 -25 -5
-61 -12 -80 -14 -19 -3 -53 -11 -75 -16 -22 -6 -51 -13 -65 -16 -14 -2 -70
-18 -125 -34 -55 -17 -104 -32 -110 -33 -5 -2 -19 -6 -30 -11 -11 -4 -49 -18
-85 -32 -146 -55 -311 -134 -433 -207 -43 -25 -83 -46 -88 -46 -5 0 -9 -4 -9
-8 0 -5 -12 -15 -27 -23 -16 -8 -30 -16 -33 -19 -3 -3 -30 -22 -60 -43 -193
-131 -454 -373 -588 -547 -10 -11 -27 -33 -40 -48 -12 -15 -35 -45 -50 -67
-15 -22 -30 -42 -33 -45 -6 -5 -96 -144 -144 -220 -25 -41 -143 -278 -167
-335 -43 -103 -77 -196 -97 -265 -13 -41 -29 -95 -36 -120 -38 -130 -74 -326
-93 -499 -8 -80 -7 -496 1 -566 4 -27 9 -70 12 -95 10 -79 45 -273 61 -330 30
-111 36 -135 41 -150 2 -8 5 -17 5 -20 8 -37 123 -333 152 -388 7 -15 22 -45
33 -67 18 -35 64 -120 97 -179 6 -11 14 -25 19 -30 4 -6 29 -45 56 -86 79
-120 148 -214 196 -266 6 -6 25 -30 44 -53 67 -82 241 -251 351 -341 30 -25
57 -47 60 -50 3 -3 21 -17 40 -30 19 -13 37 -27 40 -30 9 -11 205 -137 270
-175 90 -52 344 -175 362 -175 8 0 18 -4 24 -9 8 -8 199 -76 242 -87 9 -2 40
-9 67 -16 28 -6 53 -17 57 -22 4 -6 8 -8 8 -5 0 5 41 -2 200 -35 13 -3 65 -11
150 -22 101 -14 183 -18 375 -18 121 0 247 3 280 7 100 11 201 25 240 34 11 2
45 8 75 14 30 6 78 17 105 25 28 8 50 14 50 13 0 -6 222 65 295 94 14 6 27 11
30 11 41 6 357 162 453 223 37 24 70 43 73 43 2 0 10 5 17 10 7 6 58 43 113
83 143 101 244 187 373 318 58 57 99 102 189 207 55 65 172 227 172 240 0 6 4
12 9 14 23 9 263 452 267 493 1 11 16 51 40 105 8 20 16 42 17 50 2 8 5 20 8
25 12 20 84 275 93 330 2 11 11 61 19 110 9 50 18 108 21 130 3 22 9 60 13 85
3 25 7 153 7 285 0 211 -3 277 -18 385 -2 14 -7 49 -11 79 -3 30 -9 63 -11 75
-3 12 -9 46 -15 76 -10 52 -54 227 -65 260 -3 8 -5 16 -5 17 0 1 -10 26 -21
55 -11 29 -23 67 -27 83 -20 77 -155 365 -225 480 -17 28 -38 62 -46 77 -43
79 -210 301 -310 412 -116 130 -276 277 -400 370 -30 22 -57 43 -60 47 -3 3
-51 35 -106 72 -172 113 -319 190 -560 293 -85 37 -396 129 -469 139 -16 3
-43 8 -60 12 -16 4 -32 7 -35 8 -3 1 -32 5 -65 9 -32 4 -68 10 -80 12 -66 14
-586 30 -597 18z"/>
</g>
</svg>
